<?xml version="1.0" encoding="UTF-8" standalone="no"?>
<!DOCTYPE svg PUBLIC "-//W3C//DTD SVG 1.1//EN" "http://www.w3.org/Graphics/SVG/1.1/DTD/svg11.dtd">
<svg width="100%" height="100%" viewBox="0 0 209 146" version="1.1" xmlns="http://www.w3.org/2000/svg" xmlns:xlink="http://www.w3.org/1999/xlink" xml:space="preserve" xmlns:serif="http://www.serif.com/" style="fill-rule:evenodd;clip-rule:evenodd;stroke-linejoin:round;stroke-miterlimit:2;">
    <g transform="matrix(1,0,0,1,-1069.54,-285.892)">
        <g transform="matrix(9.39757,0,0,9.39757,-10341.8,-3547.36)">
            <g transform="matrix(12,0,0,12,1214.03,416.082)">
                <path d="M0.197,-0.682L0.333,-0.287L0.337,-0.287L0.337,-0.682L0.508,-0.682L0.508,-0L0.337,-0L0.205,-0.393L0.197,-0.393L0.197,-0L0.025,-0L0.025,-0.682L0.197,-0.682Z" style="fill:rgb(232,69,34);fill-rule:nonzero;"/>
            </g>
            <g transform="matrix(12,0,0,12,1220.43,416.082)">
                <path d="M0.303,-0.682C0.318,-0.682 0.333,-0.679 0.346,-0.674C0.359,-0.668 0.37,-0.66 0.38,-0.651C0.389,-0.641 0.397,-0.63 0.403,-0.617C0.408,-0.604 0.411,-0.589 0.411,-0.574L0.411,-0.45C0.411,-0.421 0.406,-0.397 0.396,-0.378C0.385,-0.358 0.366,-0.347 0.339,-0.345L0.339,-0.337C0.366,-0.336 0.385,-0.325 0.396,-0.306C0.406,-0.286 0.411,-0.262 0.411,-0.233L0.411,-0.109C0.411,-0.094 0.408,-0.08 0.403,-0.067C0.397,-0.054 0.389,-0.042 0.38,-0.032C0.37,-0.022 0.359,-0.014 0.346,-0.009C0.333,-0.003 0.318,-0 0.303,-0L0.025,-0L0.025,-0.682L0.303,-0.682ZM0.222,-0.14C0.227,-0.14 0.232,-0.142 0.235,-0.145C0.238,-0.148 0.24,-0.153 0.24,-0.158L0.24,-0.243C0.24,-0.248 0.238,-0.253 0.235,-0.256C0.232,-0.259 0.227,-0.261 0.222,-0.261L0.197,-0.261L0.197,-0.14L0.222,-0.14ZM0.197,-0.548L0.197,-0.427L0.222,-0.427C0.227,-0.427 0.232,-0.429 0.235,-0.432C0.238,-0.435 0.24,-0.44 0.24,-0.445L0.24,-0.53C0.24,-0.535 0.238,-0.54 0.235,-0.543C0.232,-0.546 0.227,-0.548 0.222,-0.548L0.197,-0.548Z" style="fill:rgb(232,69,34);fill-rule:nonzero;"/>
            </g>
            <g transform="matrix(12,0,0,12,1225.54,416.082)">
                <path d="M0.01,-0L0.153,-0.682L0.349,-0.682L0.491,-0L0.315,-0L0.305,-0.065L0.197,-0.065L0.186,-0L0.01,-0ZM0.221,-0.215L0.28,-0.215L0.255,-0.384L0.247,-0.384L0.221,-0.215Z" style="fill:rgb(232,69,34);fill-rule:nonzero;"/>
            </g>
        </g>
        <g transform="matrix(7.76398,0,0,7.76398,-8358.51,-2798.76)">
            <g transform="matrix(12,0,0,12,1214.03,416.082)">
                <path d="M0.197,-0.682L0.333,-0.287L0.337,-0.287L0.337,-0.682L0.508,-0.682L0.508,-0L0.337,-0L0.205,-0.393L0.197,-0.393L0.197,-0L0.025,-0L0.025,-0.682L0.197,-0.682Z" style="fill:rgb(229,229,220);fill-rule:nonzero;"/>
            </g>
            <g transform="matrix(12,0,0,12,1220.43,416.082)">
                <path d="M0.02,-0.574C0.02,-0.589 0.023,-0.604 0.029,-0.617C0.034,-0.63 0.042,-0.641 0.052,-0.651C0.062,-0.66 0.074,-0.668 0.087,-0.674C0.1,-0.679 0.114,-0.682 0.129,-0.682L0.298,-0.682C0.313,-0.682 0.328,-0.679 0.341,-0.674C0.354,-0.668 0.365,-0.66 0.375,-0.651C0.384,-0.641 0.392,-0.63 0.398,-0.617C0.403,-0.604 0.406,-0.589 0.406,-0.574L0.406,-0.109C0.406,-0.094 0.403,-0.08 0.398,-0.067C0.392,-0.054 0.384,-0.042 0.374,-0.032C0.364,-0.022 0.353,-0.014 0.34,-0.009C0.327,-0.003 0.313,-0 0.298,-0L0.129,-0C0.114,-0 0.1,-0.003 0.087,-0.009C0.074,-0.014 0.062,-0.022 0.052,-0.032C0.042,-0.042 0.034,-0.054 0.029,-0.067C0.023,-0.08 0.02,-0.094 0.02,-0.109L0.02,-0.574ZM0.192,-0.158C0.192,-0.153 0.194,-0.148 0.197,-0.145C0.2,-0.142 0.205,-0.14 0.21,-0.14L0.217,-0.14C0.222,-0.14 0.227,-0.142 0.23,-0.145C0.233,-0.148 0.235,-0.153 0.235,-0.158L0.235,-0.53C0.235,-0.535 0.233,-0.54 0.23,-0.543C0.227,-0.546 0.222,-0.548 0.217,-0.548L0.21,-0.548C0.205,-0.548 0.2,-0.546 0.197,-0.543C0.194,-0.54 0.192,-0.535 0.192,-0.53L0.192,-0.158Z" style="fill:rgb(229,229,220);fill-rule:nonzero;"/>
            </g>
            <g transform="matrix(12,0,0,12,1225.54,416.082)">
                <path d="M0.015,-0.682L0.191,-0.682L0.252,-0.298L0.26,-0.298L0.32,-0.682L0.49,-0.682L0.551,-0.298L0.559,-0.298L0.619,-0.682L0.795,-0.682L0.653,-0L0.47,-0L0.409,-0.384L0.401,-0.384L0.341,-0L0.158,-0L0.015,-0.682Z" style="fill:rgb(229,229,220);fill-rule:nonzero;"/>
            </g>
        </g>
        <g transform="matrix(1.15358,0,0,1.15684,-172.207,-182.973)">
            <path d="M1257,405.297L1257,531.333L1211.07,531.333L1223.07,474.611L1208.07,405.297L1257,405.297Z" style="fill:none;"/>
            <clipPath id="_clip1">
                <path d="M1257,405.297L1257,531.333L1211.07,531.333L1223.07,474.611L1208.07,405.297L1257,405.297Z"/>
            </clipPath>
            <g clip-path="url(#_clip1)">
                <g transform="matrix(-4.71477,0,0,4.70147,1289.42,405.273)">
                    <path d="M11.939,8.819C11.519,8.759 11.105,8.715 10.7,8.683C9.786,10.591 9.17,12.664 8.906,14.851C11.705,14.841 16.363,15.997 17.849,23.369C18.58,27.018 20.328,28.877 23.257,29.082C25.675,27.705 27.683,25.696 29.066,23.285C26.671,15.833 20.206,10.006 11.939,8.819Z" style="fill:rgb(37,70,224);fill-rule:nonzero;"/>
                    <path d="M7.483,16.269C5.35,16.593 3.862,17.437 3.061,18.773C1.927,20.663 2.386,23.144 2.722,24.353C4.886,27.507 8.184,29.825 12.029,30.716C9.147,27.105 7.459,22.458 7.459,17.259C7.458,16.927 7.469,16.599 7.483,16.269Z" style="fill:rgb(37,70,224);fill-rule:nonzero;"/>
                    <path d="M9.932,7.334C10.521,6.23 11.201,5.182 11.97,4.2C10.135,3.56 9.573,2.216 9.517,1.221C5.762,2.808 2.754,5.825 1.188,9.595C3.576,8.108 6.31,7.323 9.321,7.323C9.522,7.325 9.728,7.33 9.932,7.334Z" style="fill:rgb(37,70,224);fill-rule:nonzero;"/>
                    <path d="M7.586,14.941C7.83,12.715 8.419,10.591 9.298,8.625C5.803,8.632 2.885,9.725 0.507,11.615C0.175,12.874 0,14.196 0,15.562C0,17.542 0.37,19.441 1.045,21.187C1.105,20.163 1.354,19.089 1.939,18.107C2.989,16.355 4.891,15.291 7.586,14.941Z" style="fill:rgb(37,70,224);fill-rule:nonzero;"/>
                    <path d="M12.888,3.112C13.917,1.963 15.072,0.925 16.327,0.025C16.071,0.012 15.814,0.005 15.56,0.005C12.578,0.005 10.835,0.819 10.835,0.819C10.804,1.003 10.618,2.593 12.888,3.112Z" style="fill:rgb(37,70,224);fill-rule:nonzero;"/>
                    <path d="M28.184,6.471L28.157,6.49C25.243,2.848 20.538,4.743 20.489,4.762C19.21,5.292 16.876,5.218 13.364,4.538C12.613,5.438 11.94,6.407 11.356,7.436C11.61,7.462 11.868,7.492 12.128,7.529C18.062,8.38 23.306,11.495 26.899,16.29C28.149,17.96 29.147,19.764 29.878,21.654C30.678,19.784 31.118,17.722 31.118,15.562C31.115,12.167 30.029,9.027 28.184,6.471Z" style="fill:rgb(37,70,224);fill-rule:nonzero;"/>
                    <path d="M19.99,3.56C21.076,3.108 22.933,2.724 24.855,3.09C22.966,1.674 20.742,0.687 18.326,0.251C16.879,1.134 15.555,2.195 14.38,3.405C17.811,4.004 19.324,3.835 19.99,3.56Z" style="fill:rgb(37,70,224);fill-rule:nonzero;"/>
                    <path d="M16.574,23.626C15.281,17.204 11.454,16.095 8.793,16.147C8.772,16.514 8.762,16.882 8.762,17.253C8.762,22.606 10.684,27.46 14.021,31.036C14.527,31.083 15.041,31.111 15.562,31.111C17.585,31.111 19.523,30.724 21.301,30.019C18.85,29.208 17.266,27.07 16.574,23.626Z" style="fill:rgb(37,70,224);fill-rule:nonzero;"/>
                </g>
            </g>
        </g>
    </g>
</svg>
