<?xml version="1.0" encoding="UTF-8" standalone="no"?>
<!DOCTYPE svg PUBLIC "-//W3C//DTD SVG 1.1//EN" "http://www.w3.org/Graphics/SVG/1.1/DTD/svg11.dtd">
<svg width="100%" height="100%" viewBox="0 0 429 674" version="1.1" xmlns="http://www.w3.org/2000/svg" xmlns:xlink="http://www.w3.org/1999/xlink" xml:space="preserve" xmlns:serif="http://www.serif.com/" style="fill-rule:evenodd;clip-rule:evenodd;stroke-miterlimit:1.5;">
    <g transform="matrix(1,0,0,1,-7014.48,-184.986)">
        <g transform="matrix(1,0,0,1,-0.432554,0)">
            <g transform="matrix(1.72741,0,0,1.48782,6474.23,-210.775)">
                <rect x="313" y="266" width="248" height="453" style="fill:none;"/>
                <clipPath id="_clip1">
                    <rect x="313" y="266" width="248" height="453"/>
                </clipPath>
                <g clip-path="url(#_clip1)">
                    <g transform="matrix(0.5789,0,0,0.672122,-2591.27,73.9881)">
                        <circle cx="5057.4" cy="284.402" r="187.402" style="fill:none;stroke:rgb(132,134,134);stroke-opacity:0.2;stroke-width:5px;"/>
                    </g>
                    <g transform="matrix(0.5789,0,0,0.672122,-2612.8,485.466)">
                        <circle cx="5057.4" cy="284.402" r="187.402" style="fill:none;stroke:rgb(132,134,134);stroke-opacity:0.5;stroke-width:5px;"/>
                    </g>
                    <g transform="matrix(6.74319,0,0,7.82907,417.102,370.35)">
                        <g opacity="0.5">
                            <path d="M11.939,8.819C11.519,8.759 11.105,8.715 10.7,8.683C9.786,10.591 9.17,12.664 8.906,14.851C11.705,14.841 16.363,15.997 17.849,23.369C18.58,27.018 20.328,28.877 23.257,29.082C25.675,27.705 27.683,25.696 29.066,23.285C26.671,15.833 20.206,10.006 11.939,8.819Z" style="fill:rgb(132,134,134);fill-rule:nonzero;"/>
                            <path d="M7.483,16.269C5.35,16.593 3.862,17.437 3.061,18.773C1.927,20.663 2.386,23.144 2.722,24.353C4.886,27.507 8.184,29.825 12.029,30.716C9.147,27.105 7.459,22.458 7.459,17.259C7.458,16.927 7.469,16.599 7.483,16.269Z" style="fill:rgb(132,134,134);fill-rule:nonzero;"/>
                            <path d="M9.932,7.334C10.521,6.23 11.201,5.182 11.97,4.2C10.135,3.56 9.573,2.216 9.517,1.221C5.762,2.808 2.754,5.825 1.188,9.595C3.576,8.108 6.31,7.323 9.321,7.323C9.522,7.325 9.728,7.33 9.932,7.334Z" style="fill:rgb(132,134,134);fill-rule:nonzero;"/>
                            <path d="M7.586,14.941C7.83,12.715 8.419,10.591 9.298,8.625C5.803,8.632 2.885,9.725 0.507,11.615C0.175,12.874 0,14.196 0,15.562C0,17.542 0.37,19.441 1.045,21.187C1.105,20.163 1.354,19.089 1.939,18.107C2.989,16.355 4.891,15.291 7.586,14.941Z" style="fill:rgb(132,134,134);fill-rule:nonzero;"/>
                            <path d="M12.888,3.112C13.917,1.963 15.072,0.925 16.327,0.025C16.071,0.012 15.814,0.005 15.56,0.005C12.578,0.005 10.835,0.819 10.835,0.819C10.804,1.003 10.618,2.593 12.888,3.112Z" style="fill:rgb(132,134,134);fill-rule:nonzero;"/>
                            <path d="M28.184,6.471L28.157,6.49C25.243,2.848 20.538,4.743 20.489,4.762C19.21,5.292 16.876,5.218 13.364,4.538C12.613,5.438 11.94,6.407 11.356,7.436C11.61,7.462 11.868,7.492 12.128,7.529C18.062,8.38 23.306,11.495 26.899,16.29C28.149,17.96 29.147,19.764 29.878,21.654C30.678,19.784 31.118,17.722 31.118,15.562C31.115,12.167 30.029,9.027 28.184,6.471Z" style="fill:rgb(132,134,134);fill-rule:nonzero;"/>
                            <path d="M19.99,3.56C21.076,3.108 22.933,2.724 24.855,3.09C22.966,1.674 20.742,0.687 18.326,0.251C16.879,1.134 15.555,2.195 14.38,3.405C17.811,4.004 19.324,3.835 19.99,3.56Z" style="fill:rgb(132,134,134);fill-rule:nonzero;"/>
                            <path d="M16.574,23.626C15.281,17.204 11.454,16.095 8.793,16.147C8.772,16.514 8.762,16.882 8.762,17.253C8.762,22.606 10.684,27.46 14.021,31.036C14.527,31.083 15.041,31.111 15.562,31.111C17.585,31.111 19.523,30.724 21.301,30.019C18.85,29.208 17.266,27.07 16.574,23.626Z" style="fill:rgb(132,134,134);fill-rule:nonzero;"/>
                        </g>
                    </g>
                    <g transform="matrix(0.524436,0,0,0.608888,-3352.76,160.058)">
                        <path d="M7331.17,317.346C7340.82,320.694 7351.53,318.693 7359.32,312.084C7366.91,305.606 7377.23,301.474 7388.47,301.474C7399.71,301.474 7410.03,305.606 7417.62,312.085C7425.41,318.694 7436.11,320.694 7445.77,317.346C7455.19,314.048 7466.3,313.921 7476.78,317.982C7487.26,322.043 7495.39,329.623 7500.13,338.407C7505.01,347.384 7514.27,353.116 7524.48,353.481C7534.45,353.809 7544.86,357.705 7553.17,365.278C7561.47,372.851 7566.31,382.855 7567.56,392.758C7568.86,402.891 7575.43,411.58 7584.82,415.608C7594,419.518 7602.3,426.91 7607.31,436.973C7612.32,447.036 7613.22,458.112 7610.8,467.797C7608.36,477.717 7611.34,488.19 7618.64,495.338C7625.79,502.301 7630.86,512.192 7631.89,523.385C7632.93,534.579 7629.77,545.232 7624.02,553.39C7618.16,561.758 7617.15,572.6 7621.38,581.903C7625.53,590.979 7626.68,602.032 7623.6,612.844C7620.53,623.656 7613.73,632.447 7605.42,637.977C7596.93,643.663 7592.08,653.41 7592.66,663.61C7593.25,673.574 7590.33,684.296 7583.56,693.267C7576.78,702.238 7567.27,707.98 7557.52,710.135C7547.55,712.369 7539.51,719.705 7536.36,729.426C7533.32,738.931 7526.72,747.875 7517.16,753.793C7507.61,759.711 7496.66,761.628 7486.79,760.117C7476.69,758.6 7466.54,762.533 7460.09,770.462C7453.82,778.225 7444.44,784.182 7433.39,786.248C7422.34,788.313 7411.44,786.147 7402.79,781.174C7393.91,776.109 7383.02,776.109 7374.15,781.174C7365.5,786.147 7354.6,788.313 7343.55,786.248C7332.5,784.182 7323.12,778.225 7316.84,770.461C7310.4,762.533 7300.25,758.6 7290.14,760.118C7280.28,761.628 7269.33,759.711 7259.77,753.793C7250.22,747.875 7243.62,738.931 7240.57,729.426C7237.43,719.705 7229.38,712.37 7219.41,710.135C7209.67,707.98 7200.15,702.238 7193.38,693.267C7186.6,684.296 7183.69,673.574 7184.28,663.61C7184.86,653.41 7180,643.663 7171.52,637.978C7163.21,632.447 7156.41,623.656 7153.33,612.844C7150.26,602.032 7151.41,590.979 7155.56,581.903C7159.78,572.6 7158.78,561.758 7152.92,553.39C7147.17,545.232 7144.01,534.579 7145.04,523.385C7146.08,512.192 7151.15,502.301 7158.3,495.339C7165.6,488.19 7168.58,477.717 7166.13,467.797C7163.72,458.112 7164.62,447.036 7169.63,436.973C7174.64,426.91 7182.94,419.518 7192.12,415.609C7201.51,411.58 7208.07,402.891 7209.38,392.758C7210.62,382.855 7215.46,372.851 7223.77,365.278C7232.08,357.705 7242.49,353.809 7252.46,353.481C7262.67,353.116 7271.93,347.384 7276.81,338.407C7281.55,329.623 7289.67,322.043 7300.16,317.982C7310.64,313.921 7321.75,314.048 7331.17,317.346Z" style="fill:none;stroke:rgb(132,134,134);stroke-opacity:0.5;stroke-width:5.52px;stroke-linecap:round;stroke-linejoin:round;"/>
                    </g>
                    <g transform="matrix(0.340164,0,0,0.394941,-2172.74,57.0113)">
                        <path d="M7327.01,316.125C7339.34,319.086 7352.33,316.656 7362.75,309.443C7369.89,304.504 7378.84,301.474 7388.47,301.474C7398.1,301.474 7407.04,304.504 7414.18,309.444C7424.6,316.656 7437.6,319.086 7449.92,316.124C7458.36,314.098 7467.8,314.505 7476.78,317.982C7485.76,321.46 7493.01,327.518 7497.88,334.703C7504.99,345.193 7516.23,352.154 7528.79,353.843C7537.4,355.004 7546.05,358.792 7553.17,365.278C7560.28,371.763 7564.85,380.031 7566.8,388.492C7569.64,400.841 7577.61,411.394 7588.71,417.506C7596.32,421.697 7603.02,428.356 7607.31,436.973C7611.6,445.591 7612.87,454.951 7611.64,463.545C7609.82,476.086 7613.44,488.806 7621.59,498.515C7627.16,505.169 7631.01,513.8 7631.89,523.385C7632.78,532.971 7630.59,542.16 7626.33,549.726C7620.11,560.766 7618.89,573.934 7622.98,585.93C7625.77,594.149 7626.24,603.585 7623.6,612.844C7620.97,622.103 7615.61,629.88 7608.9,635.396C7599.11,643.444 7593.22,655.282 7592.69,667.943C7592.33,676.618 7589.36,685.585 7583.56,693.267C7577.76,700.949 7569.95,706.264 7561.7,708.985C7549.67,712.953 7539.89,721.863 7534.83,733.48C7531.36,741.438 7525.35,748.725 7517.16,753.793C7508.98,758.861 7499.78,760.995 7491.11,760.554C7478.45,759.907 7466.12,764.685 7457.2,773.689C7451.09,779.856 7442.85,784.479 7433.39,786.248C7423.93,788.017 7414.57,786.682 7406.65,783.139C7395.08,777.964 7381.86,777.964 7370.29,783.139C7362.36,786.682 7353.01,788.017 7343.55,786.248C7334.09,784.479 7325.85,779.856 7319.74,773.688C7310.82,764.684 7298.49,759.907 7285.83,760.555C7277.16,760.995 7267.96,758.861 7259.77,753.793C7251.59,748.725 7245.57,741.438 7242.11,733.48C7237.04,721.863 7227.27,712.953 7215.24,708.985C7206.99,706.264 7199.18,700.949 7193.38,693.267C7187.58,685.585 7184.6,676.618 7184.24,667.943C7183.72,655.282 7177.82,643.444 7168.03,635.397C7161.33,629.88 7155.97,622.103 7153.33,612.844C7150.7,603.585 7151.16,594.149 7153.96,585.93C7158.05,573.934 7156.83,560.767 7150.61,549.727C7146.35,542.16 7144.15,532.971 7145.04,523.385C7145.93,513.8 7149.77,505.169 7155.35,498.515C7163.49,488.806 7167.11,476.086 7165.3,463.545C7164.06,454.951 7165.34,445.591 7169.63,436.973C7173.92,428.356 7180.62,421.697 7188.23,417.506C7199.33,411.394 7207.3,400.841 7210.14,388.492C7212.09,380.031 7216.66,371.763 7223.77,365.278C7230.89,358.792 7239.54,355.004 7248.14,353.844C7260.7,352.154 7271.95,345.192 7279.06,334.703C7283.93,327.518 7291.18,321.46 7300.16,317.982C7309.13,314.505 7318.57,314.098 7327.01,316.125Z" style="fill:rgb(132,134,134);fill-opacity:0.5;"/>
                    </g>
                    <g transform="matrix(0.468887,0,0,0.544394,-3027.36,464.98)">
                        <path d="M7330.1,316.988C7340.44,320.281 7351.74,318.168 7360.19,311.362C7367.69,305.301 7377.65,301.474 7388.47,301.474C7399.29,301.474 7409.25,305.301 7416.75,311.363C7425.2,318.169 7436.5,320.281 7446.84,316.986C7456.02,314.045 7466.69,314.074 7476.78,317.982C7486.87,321.89 7494.77,329.057 7499.58,337.42C7505,346.819 7514.77,352.87 7525.6,353.533C7535.23,354.107 7545.17,357.99 7553.17,365.278C7561.16,372.566 7565.94,382.105 7567.4,391.639C7569.06,402.361 7575.99,411.535 7585.85,416.065C7594.62,420.078 7602.49,427.289 7607.31,436.973C7612.13,446.657 7613.14,457.28 7611.06,466.697C7608.74,477.294 7611.88,488.351 7619.44,496.136C7626.17,503.048 7630.9,512.613 7631.89,523.385C7632.89,534.157 7630,544.429 7624.66,552.459C7618.66,561.5 7617.6,572.946 7621.83,582.935C7625.61,591.81 7626.57,602.439 7623.6,612.844C7620.64,623.249 7614.24,631.783 7606.35,637.339C7597.49,643.603 7592.37,653.894 7592.71,664.739C7593.03,674.379 7590.08,684.634 7583.56,693.267C7577.04,701.9 7567.98,707.543 7558.62,709.876C7548.1,712.518 7539.6,720.263 7536,730.497C7532.82,739.6 7526.36,748.098 7517.16,753.793C7507.97,759.488 7497.48,761.478 7487.91,760.273C7477.15,758.935 7466.43,763.088 7459.37,771.33C7453.11,778.668 7444.02,784.26 7433.39,786.248C7422.76,788.236 7412.26,786.304 7403.77,781.723C7394.22,776.586 7382.72,776.587 7373.16,781.724C7364.68,786.304 7354.18,788.236 7343.55,786.248C7332.91,784.26 7323.82,778.668 7317.57,771.33C7310.51,763.088 7299.79,758.935 7289.02,760.274C7279.45,761.478 7268.97,759.488 7259.77,753.793C7250.57,748.098 7244.12,739.6 7240.93,730.497C7237.33,720.263 7228.84,712.518 7218.31,709.877C7208.95,707.543 7199.9,701.9 7193.38,693.267C7186.86,684.634 7183.91,674.379 7184.23,664.739C7184.57,653.894 7179.44,643.604 7170.58,637.339C7162.7,631.783 7156.29,623.249 7153.33,612.844C7150.37,602.439 7151.33,591.81 7155.11,582.936C7159.34,572.947 7158.28,561.5 7152.28,552.459C7146.94,544.429 7144.05,534.157 7145.04,523.385C7146.04,512.613 7150.77,503.048 7157.5,496.137C7165.06,488.352 7168.2,477.295 7165.88,466.698C7163.79,457.28 7164.81,446.657 7169.63,436.973C7174.45,427.289 7182.32,420.078 7191.09,416.065C7200.95,411.535 7207.87,402.361 7209.53,391.639C7210.99,382.105 7215.78,372.566 7223.77,365.278C7231.77,357.99 7241.7,354.107 7251.33,353.533C7262.16,352.871 7271.94,346.818 7277.36,337.42C7282.16,329.057 7290.07,321.89 7300.16,317.982C7310.24,314.074 7320.91,314.045 7330.1,316.988Z" style="fill:rgb(132,134,134);fill-opacity:0.2;"/>
                    </g>
                </g>
            </g>
        </g>
    </g>
</svg>
