<?xml version="1.0" encoding="UTF-8" standalone="no"?>
<!DOCTYPE svg PUBLIC "-//W3C//DTD SVG 1.1//EN" "http://www.w3.org/Graphics/SVG/1.1/DTD/svg11.dtd">
<svg width="100%" height="100%" viewBox="0 0 218 218" version="1.1" xmlns="http://www.w3.org/2000/svg" xmlns:xlink="http://www.w3.org/1999/xlink" xml:space="preserve" xmlns:serif="http://www.serif.com/" style="fill-rule:evenodd;clip-rule:evenodd;stroke-linejoin:round;stroke-miterlimit:2;">
    <g transform="matrix(1,0,0,1,-4798.54,-467.11)">
        <g transform="matrix(6.36205,0,0,6.36205,4402.43,132.917)">
            <g transform="matrix(0.157182,0,0,0.157182,-640.517,-20.8922)">
                <circle cx="4580" cy="576" r="108.89" style="fill:rgb(23,28,39);"/>
            </g>
        </g>
        <g transform="matrix(6.36205,0,0,6.36205,4402.43,132.917)">
            <g transform="matrix(1,0,0,1,51.1205,-1.56253)">
                <g transform="matrix(1,0,0,1,12.6974,55.6492)">
                    <path d="M11.939,8.819C11.519,8.759 11.105,8.715 10.7,8.683C9.786,10.591 9.17,12.664 8.906,14.851C11.705,14.841 16.363,15.997 17.849,23.369C18.58,27.018 20.328,28.877 23.257,29.082C25.675,27.705 27.683,25.696 29.066,23.285C26.671,15.833 20.206,10.006 11.939,8.819Z" style="fill:rgb(232,69,34);fill-rule:nonzero;"/>
                </g>
                <g transform="matrix(1,0,0,1,12.6974,55.6492)">
                    <path d="M7.483,16.269C5.35,16.593 3.862,17.437 3.061,18.773C1.927,20.663 2.386,23.144 2.722,24.353C4.886,27.507 8.184,29.825 12.029,30.716C9.147,27.105 7.459,22.458 7.459,17.259C7.458,16.927 7.469,16.599 7.483,16.269Z" style="fill:rgb(232,69,34);fill-rule:nonzero;"/>
                </g>
                <g transform="matrix(1,0,0,1,12.6974,55.6492)">
                    <path d="M9.932,7.334C10.521,6.23 11.201,5.182 11.97,4.2C10.135,3.56 9.573,2.216 9.517,1.221C5.762,2.808 2.754,5.825 1.188,9.595C3.576,8.108 6.31,7.323 9.321,7.323C9.522,7.325 9.728,7.33 9.932,7.334Z" style="fill:rgb(232,69,34);fill-rule:nonzero;"/>
                </g>
                <g transform="matrix(1,0,0,1,12.6974,55.6492)">
                    <path d="M7.586,14.941C7.83,12.715 8.419,10.591 9.298,8.625C5.803,8.632 2.885,9.725 0.507,11.615C0.175,12.874 0,14.196 0,15.562C0,17.542 0.37,19.441 1.045,21.187C1.105,20.163 1.354,19.089 1.939,18.107C2.989,16.355 4.891,15.291 7.586,14.941Z" style="fill:rgb(232,69,34);fill-rule:nonzero;"/>
                </g>
                <g transform="matrix(1,0,0,1,12.6974,55.6492)">
                    <path d="M12.888,3.112C13.917,1.963 15.072,0.925 16.327,0.025C16.071,0.012 15.814,0.005 15.56,0.005C12.578,0.005 10.835,0.819 10.835,0.819C10.804,1.003 10.618,2.593 12.888,3.112Z" style="fill:rgb(232,69,34);fill-rule:nonzero;"/>
                </g>
                <g transform="matrix(1,0,0,1,12.6974,55.6492)">
                    <path d="M28.184,6.471L28.157,6.49C25.243,2.848 20.538,4.743 20.489,4.762C19.21,5.292 16.876,5.218 13.364,4.538C12.613,5.438 11.94,6.407 11.356,7.436C11.61,7.462 11.868,7.492 12.128,7.529C18.062,8.38 23.306,11.495 26.899,16.29C28.149,17.96 29.147,19.764 29.878,21.654C30.678,19.784 31.118,17.722 31.118,15.562C31.115,12.167 30.029,9.027 28.184,6.471Z" style="fill:rgb(232,69,34);fill-rule:nonzero;"/>
                </g>
                <g transform="matrix(1,0,0,1,12.6974,55.6492)">
                    <path d="M19.99,3.56C21.076,3.108 22.933,2.724 24.855,3.09C22.966,1.674 20.742,0.687 18.326,0.251C16.879,1.134 15.555,2.195 14.38,3.405C17.811,4.004 19.324,3.835 19.99,3.56Z" style="fill:rgb(232,69,34);fill-rule:nonzero;"/>
                </g>
                <g transform="matrix(1,0,0,1,12.6974,55.6492)">
                    <path d="M16.574,23.626C15.281,17.204 11.454,16.095 8.793,16.147C8.772,16.514 8.762,16.882 8.762,17.253C8.762,22.606 10.684,27.46 14.021,31.036C14.527,31.083 15.041,31.111 15.562,31.111C17.585,31.111 19.523,30.724 21.301,30.019C18.85,29.208 17.266,27.07 16.574,23.626Z" style="fill:rgb(232,69,34);fill-rule:nonzero;"/>
                </g>
            </g>
        </g>
    </g>
</svg>
