<?xml version="1.0" encoding="UTF-8" standalone="no"?>
<!DOCTYPE svg PUBLIC "-//W3C//DTD SVG 1.1//EN" "http://www.w3.org/Graphics/SVG/1.1/DTD/svg11.dtd">
<svg width="100%" height="100%" viewBox="0 0 42 34" version="1.1" xmlns="http://www.w3.org/2000/svg" xmlns:xlink="http://www.w3.org/1999/xlink" xml:space="preserve" xmlns:serif="http://www.serif.com/" style="fill-rule:evenodd;clip-rule:evenodd;stroke-miterlimit:1.5;">
    <g transform="matrix(1,0,0,1,-1052.47,-2024.79)">
        <g transform="matrix(1,0,0,1,0,1227.14)">
            <g transform="matrix(0.574895,0,0,0.574895,-434.874,311.33)">
                <g transform="matrix(1.43143,0.826437,-0.826437,1.43143,2963.52,-440.16)">
                    <path d="M223.88,795.572L232.881,797.983L234.275,799.64C233.496,801.915 232.282,804.018 230.701,805.83L227.393,805.242C225.683,806.814 223.648,807.989 221.431,808.684L220.287,811.843C217.927,812.306 215.499,812.306 213.139,811.843L211.994,808.684C209.778,807.989 207.742,806.814 206.033,805.242L202.724,805.83C201.143,804.018 199.93,801.915 199.151,799.64L201.314,797.069C200.808,794.802 200.808,792.452 201.314,790.185L199.151,787.614C199.93,785.339 201.143,783.237 202.724,781.424L206.033,782.013C207.742,780.44 209.778,779.265 211.994,778.571L213.139,775.411C215.499,774.948 217.927,774.948 220.287,775.411L221.024,777.447L218.613,786.448C218.006,786.287 217.369,786.202 216.713,786.202C212.615,786.202 209.288,789.529 209.288,793.627C209.288,797.725 212.615,801.052 216.713,801.052C220.138,801.052 223.025,798.728 223.88,795.572Z" style="fill:rgb(132,134,134);"/>
                </g>
                <g transform="matrix(-1.69451,0,0,1.69451,3103.59,-89.3136)">
                    <path d="M266.368,559.138L276.2,568.97L266.193,578.976" style="fill:none;stroke:rgb(132,134,134);stroke-width:4.13px;"/>
                </g>
            </g>
        </g>
    </g>
</svg>
