<?xml version="1.0" encoding="UTF-8" standalone="no"?>
<!DOCTYPE svg PUBLIC "-//W3C//DTD SVG 1.1//EN" "http://www.w3.org/Graphics/SVG/1.1/DTD/svg11.dtd">
<svg width="100%" height="100%" viewBox="0 0 38 36" version="1.1" xmlns="http://www.w3.org/2000/svg" xmlns:xlink="http://www.w3.org/1999/xlink" xml:space="preserve" xmlns:serif="http://www.serif.com/" style="fill-rule:evenodd;clip-rule:evenodd;stroke-linejoin:round;stroke-miterlimit:2;">
    <g transform="matrix(1,0,0,1,-625.27,-2025.8)">
        <g transform="matrix(1,0,0,1,0,1227.14)">
            <g transform="matrix(0.866025,0.5,-0.5,0.866025,852.968,20.5588)">
                <path d="M220.287,775.411L221.431,778.571C223.648,779.265 225.683,780.44 227.393,782.013L230.701,781.424C232.282,783.237 233.496,785.339 234.275,787.614L232.111,790.185C232.618,792.452 232.618,794.802 232.111,797.069L234.275,799.64C233.496,801.915 232.282,804.018 230.701,805.83L227.393,805.242C225.683,806.814 223.648,807.989 221.431,808.684L220.287,811.843C217.927,812.306 215.499,812.306 213.139,811.843L211.994,808.684C209.778,807.989 207.742,806.814 206.033,805.242L202.724,805.83C201.143,804.018 199.93,801.915 199.151,799.64L201.314,797.069C200.808,794.802 200.808,792.452 201.314,790.185L199.151,787.614C199.93,785.339 201.143,783.237 202.724,781.424L206.033,782.013C207.742,780.44 209.778,779.265 211.994,778.571L213.139,775.411C215.499,774.948 217.927,774.948 220.287,775.411ZM216.713,786.202C220.811,786.202 224.138,789.529 224.138,793.627C224.138,797.725 220.811,801.052 216.713,801.052C212.615,801.052 209.288,797.725 209.288,793.627C209.288,789.529 212.615,786.202 216.713,786.202Z" style="fill:rgb(229,229,220);"/>
            </g>
        </g>
    </g>
</svg>
