<?xml version="1.0" encoding="UTF-8" standalone="no"?>
<!DOCTYPE svg PUBLIC "-//W3C//DTD SVG 1.1//EN" "http://www.w3.org/Graphics/SVG/1.1/DTD/svg11.dtd">
<svg width="100%" height="100%" viewBox="0 0 41 41" version="1.1" xmlns="http://www.w3.org/2000/svg" xmlns:xlink="http://www.w3.org/1999/xlink" xml:space="preserve" xmlns:serif="http://www.serif.com/" style="fill-rule:evenodd;clip-rule:evenodd;stroke-linecap:round;stroke-linejoin:round;stroke-miterlimit:1.5;">
    <g transform="matrix(1,0,0,1,-3653.22,-798.697)">
        <g transform="matrix(1,0,0,1,1970,2.14094)">
            <g transform="matrix(1,0,0,1,1282.16,22.9923)">
                <g transform="matrix(1,0,0,1,37.1261,0)">
                    <path d="M372.103,807.873C368.03,804.466 365.437,799.347 365.437,793.627C365.437,783.382 373.755,775.064 384,775.064C394.245,775.064 402.563,783.382 402.563,793.627C402.563,799.347 399.97,804.466 395.897,807.873C392.675,810.567 388.525,812.19 384,812.19C379.475,812.19 375.325,810.567 372.103,807.873Z" style="fill:none;stroke:rgb(132,134,134);stroke-width:3px;"/>
                </g>
                <g transform="matrix(1.35542,0,0,1.35542,-149.677,-278.072)">
                    <circle cx="421.126" cy="788" r="5.627" style="fill:rgb(132,134,134);"/>
                </g>
                <g transform="matrix(2.24875,0,0,2.24875,-525.881,-959.824)">
                    <path d="M415.836,786.08C416.621,783.918 418.695,782.373 421.126,782.373C423.558,782.373 425.631,783.918 426.417,786.08C424.984,787.278 423.138,788 421.126,788C419.114,788 417.269,787.278 415.836,786.08Z" style="fill:rgb(132,134,134);"/>
                </g>
            </g>
        </g>
    </g>
</svg>
