<?xml version="1.0" encoding="UTF-8" standalone="no"?>
<!DOCTYPE svg PUBLIC "-//W3C//DTD SVG 1.1//EN" "http://www.w3.org/Graphics/SVG/1.1/DTD/svg11.dtd">
<svg width="100%" height="100%" viewBox="0 0 41 41" version="1.1" xmlns="http://www.w3.org/2000/svg" xmlns:xlink="http://www.w3.org/1999/xlink" xml:space="preserve" xmlns:serif="http://www.serif.com/" style="fill-rule:evenodd;clip-rule:evenodd;stroke-linecap:round;stroke-linejoin:round;stroke-miterlimit:1.5;">
    <g transform="matrix(1,0,0,1,-3778.06,-2022.51)">
        <g transform="matrix(1,0,0,1,3414.13,1248.94)">
            <path d="M372.103,807.873C368.03,804.466 365.437,799.347 365.437,793.627C365.437,783.382 373.755,775.064 384,775.064C394.245,775.064 402.563,783.382 402.563,793.627C402.563,799.347 399.97,804.466 395.897,807.873C394.131,803.012 389.468,799.536 384,799.536C378.532,799.536 373.869,803.012 372.103,807.873ZM384,782.373C379.79,782.373 376.373,785.79 376.373,790C376.373,794.21 379.79,797.627 384,797.627C388.21,797.627 391.627,794.21 391.627,790C391.627,785.79 388.21,782.373 384,782.373Z" style="fill:rgb(229,229,220);"/>
        </g>
        <g transform="matrix(1,0,0,1,3414.13,1248.94)">
            <path d="M372.103,807.873C368.03,804.466 365.437,799.347 365.437,793.627C365.437,783.382 373.755,775.064 384,775.064C394.245,775.064 402.563,783.382 402.563,793.627C402.563,799.347 399.97,804.466 395.897,807.873C392.675,810.567 388.525,812.19 384,812.19C379.475,812.19 375.325,810.567 372.103,807.873Z" style="fill:none;stroke:rgb(229,229,220);stroke-width:3px;"/>
        </g>
    </g>
</svg>
