<?xml version="1.0" encoding="UTF-8" standalone="no"?>
<!DOCTYPE svg PUBLIC "-//W3C//DTD SVG 1.1//EN" "http://www.w3.org/Graphics/SVG/1.1/DTD/svg11.dtd">
<svg width="100%" height="100%" viewBox="0 0 380 674" version="1.1" xmlns="http://www.w3.org/2000/svg" xmlns:xlink="http://www.w3.org/1999/xlink" xml:space="preserve" xmlns:serif="http://www.serif.com/" style="fill-rule:evenodd;clip-rule:evenodd;stroke-linecap:square;stroke-miterlimit:1.5;">
    <g transform="matrix(1,0,0,1,-6120.24,-203.008)">
        <g transform="matrix(1,0,0,1,-0.432554,0)">
            <g transform="matrix(1.52869,0,0,1.48782,5642.19,-192.754)">
                <path d="M561,278.741L561,706.259C561,713.291 555.444,719 548.6,719L325.4,719C318.556,719 313,713.291 313,706.259L313,278.741C313,271.709 318.556,266 325.4,266L548.6,266C555.444,266 561,271.709 561,278.741Z" style="fill:none;"/>
                <clipPath id="_clip1">
                    <path d="M561,278.741L561,706.259C561,713.291 555.444,719 548.6,719L325.4,719C318.556,719 313,713.291 313,706.259L313,278.741C313,271.709 318.556,266 325.4,266L548.6,266C555.444,266 561,271.709 561,278.741Z"/>
                </clipPath>
                <g clip-path="url(#_clip1)">
                    <g transform="matrix(2.48125,1.4719,-1.43255,2.54941,-2100.41,-4119.18)">
                        <path d="M1496.65,847.371C1497.08,846.53 1497.94,846 1498.88,846C1499.82,846 1500.68,846.53 1501.11,847.371L1505.32,855.695L1514.54,857.129C1515.47,857.274 1516.24,857.931 1516.54,858.827C1516.83,859.723 1516.59,860.707 1515.92,861.371L1509.31,867.95L1510.79,877.161C1510.94,878.091 1510.55,879.027 1509.79,879.581C1509.03,880.135 1508.02,880.213 1507.18,879.783L1498.88,875.524L1490.58,879.783C1489.74,880.213 1488.73,880.135 1487.97,879.581C1487.21,879.027 1486.82,878.091 1486.97,877.161L1488.45,867.95L1481.84,861.371C1481.17,860.707 1480.93,859.723 1481.23,858.827C1481.52,857.931 1482.29,857.274 1483.22,857.129L1492.44,855.695L1496.65,847.371Z" style="fill:none;stroke:rgb(132,134,134);stroke-opacity:0.5;stroke-width:1.14px;"/>
                    </g>
                    <g transform="matrix(5.5193,1.51952,-1.47889,5.67092,-6646.05,-6518.11)">
                        <path d="M1496.65,847.371C1497.08,846.53 1497.94,846 1498.88,846C1499.82,846 1500.68,846.53 1501.11,847.371L1505.32,855.695L1514.54,857.129C1515.47,857.274 1516.24,857.931 1516.54,858.827C1516.83,859.723 1516.59,860.707 1515.92,861.371L1509.31,867.95L1510.79,877.161C1510.94,878.091 1510.55,879.027 1509.79,879.581C1509.03,880.135 1508.02,880.213 1507.18,879.783L1498.88,875.524L1490.58,879.783C1489.74,880.213 1488.73,880.135 1487.97,879.581C1487.21,879.027 1486.82,878.091 1486.97,877.161L1488.45,867.95L1481.84,861.371C1481.17,860.707 1480.93,859.723 1481.23,858.827C1481.52,857.931 1482.29,857.274 1483.22,857.129L1492.44,855.695L1496.65,847.371Z" style="fill:none;stroke:rgb(132,134,134);stroke-opacity:0.5;stroke-width:0.57px;"/>
                    </g>
                    <g transform="matrix(1.24224,0,0,1.24224,-121.598,-119.159)">
                        <g opacity="0.5">
                            <g transform="matrix(5.46557,-4.18994e-16,4.60893e-15,5.61571,-7690.37,-4376.63)">
                                <path d="M1492.56,855.519L1492.53,855.517L1492.45,855.674L1492.48,855.668L1492.56,855.519ZM1486.33,865.777C1486.32,865.786 1486.31,865.795 1486.3,865.803L1488.45,867.95L1486.97,877.161C1486.82,878.091 1487.21,879.027 1487.97,879.581C1488.59,880.028 1489.36,880.165 1490.08,879.975C1490.25,879.929 1490.42,879.865 1490.58,879.783L1491.34,879.391C1490.24,875.177 1490.2,870.57 1491.39,865.876C1491.49,865.478 1491.6,865.087 1491.72,864.696C1489.47,864.474 1487.66,864.839 1486.33,865.777ZM1508.84,880.003C1509.18,879.932 1509.5,879.79 1509.79,879.581C1510.55,879.027 1510.94,878.091 1510.79,877.161L1509.31,867.95L1510.86,866.405C1508.09,862.397 1504.17,859.114 1499.34,857.119C1498.85,856.918 1498.37,856.74 1497.89,856.578C1496.21,858.588 1494.84,860.886 1493.86,863.429C1497.22,864.271 1502.46,867.079 1501.99,876.374C1501.97,876.61 1501.97,876.84 1501.96,877.066C1501.96,877.079 1501.96,877.092 1501.96,877.106L1507.18,879.783C1507.7,880.05 1508.29,880.121 1508.84,880.003ZM1493.29,854.076C1493.29,854.076 1495.53,854.24 1496.65,854.526C1496.89,854.589 1497.14,854.658 1497.38,854.725C1498.42,853.581 1499.56,852.531 1500.78,851.588C1498.78,850.26 1498.39,848.836 1498.63,847.625C1498.7,847.243 1498.96,846.597 1499.21,845.982C1499.12,845.972 1499.02,845.967 1498.93,845.967C1498.17,845.967 1497.46,846.312 1496.99,846.888C1496.88,847.021 1496.78,847.195 1496.7,847.338L1493.29,854.076ZM1485.17,864.625L1482.79,862.257L1482.78,862.309L1485.14,864.652L1485.17,864.625ZM1498.88,875.524L1500.38,876.293C1500.38,876.28 1500.38,876.267 1500.38,876.253C1500.77,868.188 1496.53,865.697 1493.33,864.949C1493.19,865.383 1493.07,865.821 1492.95,866.266C1491.88,870.498 1491.87,874.724 1492.82,878.633L1498.88,875.524ZM1492.56,855.519C1492.55,855.518 1492.54,855.518 1492.53,855.517L1492.45,855.674L1492.48,855.668L1492.56,855.519ZM1501.96,877.066C1501.96,877.079 1501.96,877.092 1501.96,877.106L1507.18,879.783C1507.7,880.05 1508.29,880.121 1508.84,880.003C1509.18,879.932 1509.5,879.79 1509.79,879.581C1510.55,879.027 1510.94,878.091 1510.79,877.161L1509.31,867.95L1510.86,866.405C1508.09,862.397 1504.17,859.115 1499.34,857.119C1498.85,856.919 1498.37,856.74 1497.89,856.578C1496.21,858.588 1494.84,860.886 1493.86,863.429C1497.22,864.271 1502.45,867.078 1501.99,876.374C1501.97,876.61 1501.97,876.84 1501.96,877.066ZM1498.88,875.524L1500.38,876.293C1500.38,876.28 1500.38,876.267 1500.38,876.253C1500.77,868.188 1496.53,865.697 1493.33,864.949C1493.19,865.383 1493.07,865.821 1492.95,866.266C1491.88,870.498 1491.87,874.724 1492.82,878.633L1498.88,875.524ZM1486.33,865.777C1486.32,865.786 1486.31,865.795 1486.3,865.803L1488.45,867.95L1486.97,877.161C1486.82,878.091 1487.21,879.027 1487.97,879.581C1488.59,880.028 1489.36,880.165 1490.08,879.975C1490.25,879.929 1490.42,879.865 1490.58,879.783L1491.34,879.391C1490.24,875.177 1490.19,870.568 1491.39,865.876C1491.49,865.478 1491.6,865.087 1491.72,864.696C1489.47,864.474 1487.66,864.839 1486.33,865.777ZM1482.79,862.257C1482.79,862.275 1482.79,862.292 1482.78,862.309L1485.14,864.652C1485.15,864.643 1485.16,864.634 1485.17,864.625L1482.79,862.257ZM1500.97,847.122C1500.75,846.793 1500.45,847.186 1500.45,847.186C1500.36,847.397 1499.65,849.248 1502.21,850.563C1502.34,850.477 1502.47,850.393 1502.6,850.31L1501.11,847.371C1501.07,847.284 1501.02,847.201 1500.97,847.122ZM1504.05,853.187C1503.51,852.955 1502.94,852.699 1502.35,852.418C1501.17,853.269 1500.07,854.226 1499.06,855.282C1499.35,855.391 1499.65,855.505 1499.95,855.629C1504.88,857.663 1509.03,860.991 1512.03,865.244L1515.92,861.371C1516.59,860.707 1516.83,859.723 1516.54,858.827C1516.24,857.931 1515.47,857.274 1514.54,857.129L1505.32,855.695L1504.05,853.187ZM1510.86,866.405C1508.09,862.397 1504.17,859.115 1499.34,857.119C1498.85,856.919 1498.37,856.74 1497.89,856.578C1496.21,858.588 1494.84,860.886 1493.86,863.429C1497.22,864.271 1502.45,867.078 1501.99,876.374C1501.97,876.624 1501.96,876.867 1501.96,877.106L1507.18,879.783C1508.02,880.213 1509.03,880.135 1509.79,879.581C1510.55,879.027 1510.94,878.091 1510.79,877.161L1509.31,867.95L1510.86,866.405ZM1500.38,876.293C1500.79,868.196 1496.53,865.698 1493.33,864.949C1493.19,865.383 1493.07,865.821 1492.95,866.266C1491.88,870.498 1491.87,874.724 1492.82,878.633L1498.88,875.524L1500.38,876.293ZM1491.34,879.391C1490.24,875.177 1490.19,870.568 1491.39,865.876C1491.49,865.478 1491.6,865.087 1491.72,864.696C1489.45,864.472 1487.63,864.846 1486.3,865.803L1488.45,867.95L1486.97,877.161C1486.82,878.091 1487.21,879.027 1487.97,879.581C1488.73,880.135 1489.74,880.213 1490.58,879.783L1491.34,879.391Z" style="fill:none;stroke:rgb(132,134,134);stroke-width:0.48px;stroke-linejoin:round;"/>
                            </g>
                            <g transform="matrix(0.654153,0,0,0.672122,-3690.57,129.554)">
                                <path d="M6294.45,519.698L6266.92,492.319C6261.33,486.763 6259.34,478.537 6261.78,471.044C6264.21,463.551 6270.65,458.064 6278.44,456.853L6355.51,444.863L6356.15,443.614C6366.08,444.126 6376.3,445.664 6386.78,448.308C6372.96,465.771 6361.65,485.557 6353.53,507.245C6328.91,504.28 6309.07,508.457 6294.45,519.698Z" style="fill:none;stroke:rgb(132,134,134);stroke-width:4.02px;"/>
                            </g>
                        </g>
                    </g>
                    <g transform="matrix(0.911467,0.208503,-0.202929,0.936504,-689.768,-504.748)">
                        <clipPath id="_clip2">
                            <path d="M1496.65,847.371C1497.08,846.53 1497.94,846 1498.88,846C1499.82,846 1500.68,846.53 1501.11,847.371L1505.32,855.695L1514.54,857.129C1515.47,857.274 1516.24,857.931 1516.54,858.827C1516.83,859.723 1516.59,860.707 1515.92,861.371L1509.31,867.95L1510.79,877.161C1510.94,878.091 1510.55,879.027 1509.79,879.581C1509.03,880.135 1508.02,880.213 1507.18,879.783L1498.88,875.524L1490.58,879.783C1489.74,880.213 1488.73,880.135 1487.97,879.581C1487.21,879.027 1486.82,878.091 1486.97,877.161L1488.45,867.95L1481.84,861.371C1481.17,860.707 1480.93,859.723 1481.23,858.827C1481.52,857.931 1482.29,857.274 1483.22,857.129L1492.44,855.695L1496.65,847.371Z"/>
                        </clipPath>
                        <g clip-path="url(#_clip2)">
                            <g opacity="0.5">
                                <path d="M1496.65,847.371C1497.08,846.53 1497.94,846 1498.88,846C1499.82,846 1500.68,846.53 1501.11,847.371L1505.32,855.695L1514.54,857.129C1515.47,857.274 1516.24,857.931 1516.54,858.827C1516.83,859.723 1516.59,860.707 1515.92,861.371L1509.31,867.95L1510.79,877.161C1510.94,878.091 1510.55,879.027 1509.79,879.581C1509.03,880.135 1508.02,880.213 1507.18,879.783L1498.88,875.524L1490.58,879.783C1489.74,880.213 1488.73,880.135 1487.97,879.581C1487.21,879.027 1486.82,878.091 1486.97,877.161L1488.45,867.95L1481.84,861.371C1481.17,860.707 1480.93,859.723 1481.23,858.827C1481.52,857.931 1482.29,857.274 1483.22,857.129L1492.44,855.695L1496.65,847.371Z" style="fill:none;"/>
                                <clipPath id="_clip3">
                                    <path d="M1496.65,847.371C1497.08,846.53 1497.94,846 1498.88,846C1499.82,846 1500.68,846.53 1501.11,847.371L1505.32,855.695L1514.54,857.129C1515.47,857.274 1516.24,857.931 1516.54,858.827C1516.83,859.723 1516.59,860.707 1515.92,861.371L1509.31,867.95L1510.79,877.161C1510.94,878.091 1510.55,879.027 1509.79,879.581C1509.03,880.135 1508.02,880.213 1507.18,879.783L1498.88,875.524L1490.58,879.783C1489.74,880.213 1488.73,880.135 1487.97,879.581C1487.21,879.027 1486.82,878.091 1486.97,877.161L1488.45,867.95L1481.84,861.371C1481.17,860.707 1480.93,859.723 1481.23,858.827C1481.52,857.931 1482.29,857.274 1483.22,857.129L1492.44,855.695L1496.65,847.371Z"/>
                                </clipPath>
                                <g clip-path="url(#_clip3)">
                                    <g transform="matrix(0.566142,-0.412922,0.466701,0.639875,-2387.89,3377.2)">
                                        <g transform="matrix(1,0,0,1,0.432554,0)">
                                            <path d="M6549.35,265L6645,265" style="fill:none;stroke:rgb(164,162,160);stroke-width:4.68px;stroke-linecap:butt;stroke-linejoin:round;"/>
                                        </g>
                                        <g transform="matrix(1,0,0,1,0.432554,65.2582)">
                                            <path d="M6549.35,265L6645,265" style="fill:none;stroke:rgb(164,162,160);stroke-width:4.68px;stroke-linecap:butt;stroke-linejoin:round;"/>
                                        </g>
                                        <g transform="matrix(1,0,0,1,0.432554,9.32259)">
                                            <path d="M6549.35,265L6645,265" style="fill:none;stroke:rgb(164,162,160);stroke-width:4.68px;stroke-linecap:butt;stroke-linejoin:round;"/>
                                        </g>
                                        <g transform="matrix(1,0,0,1,0.432554,74.5808)">
                                            <path d="M6549.35,265L6645,265" style="fill:none;stroke:rgb(164,162,160);stroke-width:4.68px;stroke-linecap:butt;stroke-linejoin:round;"/>
                                        </g>
                                        <g transform="matrix(1,0,0,1,0.432554,18.6452)">
                                            <path d="M6549.35,265L6645,265" style="fill:none;stroke:rgb(164,162,160);stroke-width:4.68px;stroke-linecap:butt;stroke-linejoin:round;"/>
                                        </g>
                                        <g transform="matrix(1,0,0,1,0.432554,83.9033)">
                                            <path d="M6549.35,265L6645,265" style="fill:none;stroke:rgb(164,162,160);stroke-width:4.68px;stroke-linecap:butt;stroke-linejoin:round;"/>
                                        </g>
                                        <g transform="matrix(1,0,0,1,0.432554,27.9678)">
                                            <path d="M6549.35,265L6645,265" style="fill:none;stroke:rgb(164,162,160);stroke-width:4.68px;stroke-linecap:butt;stroke-linejoin:round;"/>
                                        </g>
                                        <g transform="matrix(1,0,0,1,0.432554,93.2259)">
                                            <path d="M6549.35,265L6645,265" style="fill:none;stroke:rgb(164,162,160);stroke-width:4.68px;stroke-linecap:butt;stroke-linejoin:round;"/>
                                        </g>
                                        <g transform="matrix(1,0,0,1,0.432554,37.2904)">
                                            <path d="M6549.35,265L6645,265" style="fill:none;stroke:rgb(164,162,160);stroke-width:4.68px;stroke-linecap:butt;stroke-linejoin:round;"/>
                                        </g>
                                        <g transform="matrix(1,0,0,1,0.432554,102.549)">
                                            <path d="M6549.35,265L6645,265" style="fill:none;stroke:rgb(164,162,160);stroke-width:4.68px;stroke-linecap:butt;stroke-linejoin:round;"/>
                                        </g>
                                        <g transform="matrix(1,0,0,1,0.432554,46.613)">
                                            <path d="M6549.35,265L6645,265" style="fill:none;stroke:rgb(164,162,160);stroke-width:4.68px;stroke-linecap:butt;stroke-linejoin:round;"/>
                                        </g>
                                        <g transform="matrix(1,0,0,1,0.432554,111.871)">
                                            <path d="M6549.35,265L6645,265" style="fill:none;stroke:rgb(164,162,160);stroke-width:4.68px;stroke-linecap:butt;stroke-linejoin:round;"/>
                                        </g>
                                        <g transform="matrix(1,0,0,1,0.432554,55.9356)">
                                            <path d="M6549.35,265L6645,265" style="fill:none;stroke:rgb(164,162,160);stroke-width:4.68px;stroke-linecap:butt;stroke-linejoin:round;"/>
                                        </g>
                                        <g transform="matrix(1,0,0,1,0.432554,121.194)">
                                            <path d="M6549.35,265L6645,265" style="fill:none;stroke:rgb(164,162,160);stroke-width:4.68px;stroke-linecap:butt;stroke-linejoin:round;"/>
                                        </g>
                                    </g>
                                </g>
                            </g>
                        </g>
                    </g>
                    <g transform="matrix(1.3419,-0.369437,0.35956,1.37876,-1956.78,-129.782)">
                        <path d="M1496.65,847.371C1497.08,846.53 1497.94,846 1498.88,846C1499.82,846 1500.68,846.53 1501.11,847.371L1505.32,855.695L1514.54,857.129C1515.47,857.274 1516.24,857.931 1516.54,858.827C1516.83,859.723 1516.59,860.707 1515.92,861.371L1509.31,867.95L1510.79,877.161C1510.94,878.091 1510.55,879.027 1509.79,879.581C1509.03,880.135 1508.02,880.213 1507.18,879.783L1498.88,875.524L1490.58,879.783C1489.74,880.213 1488.73,880.135 1487.97,879.581C1487.21,879.027 1486.82,878.091 1486.97,877.161L1488.45,867.95L1481.84,861.371C1481.17,860.707 1480.93,859.723 1481.23,858.827C1481.52,857.931 1482.29,857.274 1483.22,857.129L1492.44,855.695L1496.65,847.371Z" style="fill:none;stroke:rgb(132,134,134);stroke-opacity:0.5;stroke-width:2.35px;"/>
                    </g>
                    <g transform="matrix(2.21653,0.557401,-0.542499,2.27741,-2538.95,-2406.27)">
                        <clipPath id="_clip4">
                            <path d="M1496.65,847.371C1497.08,846.53 1497.94,846 1498.88,846C1499.82,846 1500.68,846.53 1501.11,847.371L1505.32,855.695L1514.54,857.129C1515.47,857.274 1516.24,857.931 1516.54,858.827C1516.83,859.723 1516.59,860.707 1515.92,861.371L1509.31,867.95L1510.79,877.161C1510.94,878.091 1510.55,879.027 1509.79,879.581C1509.03,880.135 1508.02,880.213 1507.18,879.783L1498.88,875.524L1490.58,879.783C1489.74,880.213 1488.73,880.135 1487.97,879.581C1487.21,879.027 1486.82,878.091 1486.97,877.161L1488.45,867.95L1481.84,861.371C1481.17,860.707 1480.93,859.723 1481.23,858.827C1481.52,857.931 1482.29,857.274 1483.22,857.129L1492.44,855.695L1496.65,847.371Z"/>
                        </clipPath>
                        <g clip-path="url(#_clip4)">
                            <g opacity="0.5">
                                <path d="M1496.65,847.371C1497.08,846.53 1497.94,846 1498.88,846C1499.82,846 1500.68,846.53 1501.11,847.371L1505.32,855.695L1514.54,857.129C1515.47,857.274 1516.24,857.931 1516.54,858.827C1516.83,859.723 1516.59,860.707 1515.92,861.371L1509.31,867.95L1510.79,877.161C1510.94,878.091 1510.55,879.027 1509.79,879.581C1509.03,880.135 1508.02,880.213 1507.18,879.783L1498.88,875.524L1490.58,879.783C1489.74,880.213 1488.73,880.135 1487.97,879.581C1487.21,879.027 1486.82,878.091 1486.97,877.161L1488.45,867.95L1481.84,861.371C1481.17,860.707 1480.93,859.723 1481.23,858.827C1481.52,857.931 1482.29,857.274 1483.22,857.129L1492.44,855.695L1496.65,847.371Z" style="fill:none;"/>
                                <clipPath id="_clip5">
                                    <path d="M1496.65,847.371C1497.08,846.53 1497.94,846 1498.88,846C1499.82,846 1500.68,846.53 1501.11,847.371L1505.32,855.695L1514.54,857.129C1515.47,857.274 1516.24,857.931 1516.54,858.827C1516.83,859.723 1516.59,860.707 1515.92,861.371L1509.31,867.95L1510.79,877.161C1510.94,878.091 1510.55,879.027 1509.79,879.581C1509.03,880.135 1508.02,880.213 1507.18,879.783L1498.88,875.524L1490.58,879.783C1489.74,880.213 1488.73,880.135 1487.97,879.581C1487.21,879.027 1486.82,878.091 1486.97,877.161L1488.45,867.95L1481.84,861.371C1481.17,860.707 1480.93,859.723 1481.23,858.827C1481.52,857.931 1482.29,857.274 1483.22,857.129L1492.44,855.695L1496.65,847.371Z"/>
                                </clipPath>
                                <g clip-path="url(#_clip5)">
                                    <g transform="matrix(0.286673,0.00624076,-0.00705355,0.324009,-385.408,716.346)">
                                        <g transform="matrix(1,0,0,1,0.432554,0)">
                                            <path d="M6549.35,265L6645,265" style="fill:none;stroke:rgb(164,162,160);stroke-width:4.68px;stroke-linecap:butt;stroke-linejoin:round;"/>
                                        </g>
                                        <g transform="matrix(1,0,0,1,0.432554,65.2582)">
                                            <path d="M6549.35,265L6645,265" style="fill:none;stroke:rgb(164,162,160);stroke-width:4.68px;stroke-linecap:butt;stroke-linejoin:round;"/>
                                        </g>
                                        <g transform="matrix(1,0,0,1,0.432554,9.32259)">
                                            <path d="M6549.35,265L6645,265" style="fill:none;stroke:rgb(164,162,160);stroke-width:4.68px;stroke-linecap:butt;stroke-linejoin:round;"/>
                                        </g>
                                        <g transform="matrix(1,0,0,1,0.432554,74.5808)">
                                            <path d="M6549.35,265L6645,265" style="fill:none;stroke:rgb(164,162,160);stroke-width:4.68px;stroke-linecap:butt;stroke-linejoin:round;"/>
                                        </g>
                                        <g transform="matrix(1,0,0,1,0.432554,18.6452)">
                                            <path d="M6549.35,265L6645,265" style="fill:none;stroke:rgb(164,162,160);stroke-width:4.68px;stroke-linecap:butt;stroke-linejoin:round;"/>
                                        </g>
                                        <g transform="matrix(1,0,0,1,0.432554,83.9033)">
                                            <path d="M6549.35,265L6645,265" style="fill:none;stroke:rgb(164,162,160);stroke-width:4.68px;stroke-linecap:butt;stroke-linejoin:round;"/>
                                        </g>
                                        <g transform="matrix(1,0,0,1,0.432554,27.9678)">
                                            <path d="M6549.35,265L6645,265" style="fill:none;stroke:rgb(164,162,160);stroke-width:4.68px;stroke-linecap:butt;stroke-linejoin:round;"/>
                                        </g>
                                        <g transform="matrix(1,0,0,1,0.432554,93.2259)">
                                            <path d="M6549.35,265L6645,265" style="fill:none;stroke:rgb(164,162,160);stroke-width:4.68px;stroke-linecap:butt;stroke-linejoin:round;"/>
                                        </g>
                                        <g transform="matrix(1,0,0,1,0.432554,37.2904)">
                                            <path d="M6549.35,265L6645,265" style="fill:none;stroke:rgb(164,162,160);stroke-width:4.68px;stroke-linecap:butt;stroke-linejoin:round;"/>
                                        </g>
                                        <g transform="matrix(1,0,0,1,0.432554,102.549)">
                                            <path d="M6549.35,265L6645,265" style="fill:none;stroke:rgb(164,162,160);stroke-width:4.68px;stroke-linecap:butt;stroke-linejoin:round;"/>
                                        </g>
                                        <g transform="matrix(1,0,0,1,0.432554,46.613)">
                                            <path d="M6549.35,265L6645,265" style="fill:none;stroke:rgb(164,162,160);stroke-width:4.68px;stroke-linecap:butt;stroke-linejoin:round;"/>
                                        </g>
                                        <g transform="matrix(1,0,0,1,0.432554,111.871)">
                                            <path d="M6549.35,265L6645,265" style="fill:none;stroke:rgb(164,162,160);stroke-width:4.68px;stroke-linecap:butt;stroke-linejoin:round;"/>
                                        </g>
                                        <g transform="matrix(1,0,0,1,0.432554,55.9356)">
                                            <path d="M6549.35,265L6645,265" style="fill:none;stroke:rgb(164,162,160);stroke-width:4.68px;stroke-linecap:butt;stroke-linejoin:round;"/>
                                        </g>
                                        <g transform="matrix(1,0,0,1,0.432554,121.194)">
                                            <path d="M6549.35,265L6645,265" style="fill:none;stroke:rgb(164,162,160);stroke-width:4.68px;stroke-linecap:butt;stroke-linejoin:round;"/>
                                        </g>
                                    </g>
                                </g>
                            </g>
                        </g>
                    </g>
                    <g transform="matrix(0.934694,-0.154819,0.15068,0.96037,-1031.82,-286.204)">
                        <clipPath id="_clip6">
                            <path d="M1496.65,847.371C1497.08,846.53 1497.94,846 1498.88,846C1499.82,846 1500.68,846.53 1501.11,847.371L1505.32,855.695L1514.54,857.129C1515.47,857.274 1516.24,857.931 1516.54,858.827C1516.83,859.723 1516.59,860.707 1515.92,861.371L1509.31,867.95L1510.79,877.161C1510.94,878.091 1510.55,879.027 1509.79,879.581C1509.03,880.135 1508.02,880.213 1507.18,879.783L1498.88,875.524L1490.58,879.783C1489.74,880.213 1488.73,880.135 1487.97,879.581C1487.21,879.027 1486.82,878.091 1486.97,877.161L1488.45,867.95L1481.84,861.371C1481.17,860.707 1480.93,859.723 1481.23,858.827C1481.52,857.931 1482.29,857.274 1483.22,857.129L1492.44,855.695L1496.65,847.371Z"/>
                        </clipPath>
                        <g clip-path="url(#_clip6)">
                            <g opacity="0.5">
                                <path d="M1496.65,847.371C1497.08,846.53 1497.94,846 1498.88,846C1499.82,846 1500.68,846.53 1501.11,847.371L1505.32,855.695L1514.54,857.129C1515.47,857.274 1516.24,857.931 1516.54,858.827C1516.83,859.723 1516.59,860.707 1515.92,861.371L1509.31,867.95L1510.79,877.161C1510.94,878.091 1510.55,879.027 1509.79,879.581C1509.03,880.135 1508.02,880.213 1507.18,879.783L1498.88,875.524L1490.58,879.783C1489.74,880.213 1488.73,880.135 1487.97,879.581C1487.21,879.027 1486.82,878.091 1486.97,877.161L1488.45,867.95L1481.84,861.371C1481.17,860.707 1480.93,859.723 1481.23,858.827C1481.52,857.931 1482.29,857.274 1483.22,857.129L1492.44,855.695L1496.65,847.371Z" style="fill:none;"/>
                                <clipPath id="_clip7">
                                    <path d="M1496.65,847.371C1497.08,846.53 1497.94,846 1498.88,846C1499.82,846 1500.68,846.53 1501.11,847.371L1505.32,855.695L1514.54,857.129C1515.47,857.274 1516.24,857.931 1516.54,858.827C1516.83,859.723 1516.59,860.707 1515.92,861.371L1509.31,867.95L1510.79,877.161C1510.94,878.091 1510.55,879.027 1509.79,879.581C1509.03,880.135 1508.02,880.213 1507.18,879.783L1498.88,875.524L1490.58,879.783C1489.74,880.213 1488.73,880.135 1487.97,879.581C1487.21,879.027 1486.82,878.091 1486.97,877.161L1488.45,867.95L1481.84,861.371C1481.17,860.707 1480.93,859.723 1481.23,858.827C1481.52,857.931 1482.29,857.274 1483.22,857.129L1492.44,855.695L1496.65,847.371Z"/>
                                </clipPath>
                                <g clip-path="url(#_clip7)">
                                    <g transform="matrix(0.690904,0.0174301,-0.0197002,0.780886,-3055.21,503.961)">
                                        <g transform="matrix(1,0,0,1,0.432554,0)">
                                            <path d="M6549.35,265L6645,265" style="fill:none;stroke:rgb(164,162,160);stroke-width:4.68px;stroke-linecap:butt;stroke-linejoin:round;"/>
                                        </g>
                                        <g transform="matrix(1,0,0,1,0.432554,65.2582)">
                                            <path d="M6549.35,265L6645,265" style="fill:none;stroke:rgb(164,162,160);stroke-width:4.68px;stroke-linecap:butt;stroke-linejoin:round;"/>
                                        </g>
                                        <g transform="matrix(1,0,0,1,0.432554,9.32259)">
                                            <path d="M6549.35,265L6645,265" style="fill:none;stroke:rgb(164,162,160);stroke-width:4.68px;stroke-linecap:butt;stroke-linejoin:round;"/>
                                        </g>
                                        <g transform="matrix(1,0,0,1,0.432554,74.5808)">
                                            <path d="M6549.35,265L6645,265" style="fill:none;stroke:rgb(164,162,160);stroke-width:4.68px;stroke-linecap:butt;stroke-linejoin:round;"/>
                                        </g>
                                        <g transform="matrix(1,0,0,1,0.432554,18.6452)">
                                            <path d="M6549.35,265L6645,265" style="fill:none;stroke:rgb(164,162,160);stroke-width:4.68px;stroke-linecap:butt;stroke-linejoin:round;"/>
                                        </g>
                                        <g transform="matrix(1,0,0,1,0.432554,83.9033)">
                                            <path d="M6549.35,265L6645,265" style="fill:none;stroke:rgb(164,162,160);stroke-width:4.68px;stroke-linecap:butt;stroke-linejoin:round;"/>
                                        </g>
                                        <g transform="matrix(1,0,0,1,0.432554,27.9678)">
                                            <path d="M6549.35,265L6645,265" style="fill:none;stroke:rgb(164,162,160);stroke-width:4.68px;stroke-linecap:butt;stroke-linejoin:round;"/>
                                        </g>
                                        <g transform="matrix(1,0,0,1,0.432554,93.2259)">
                                            <path d="M6549.35,265L6645,265" style="fill:none;stroke:rgb(164,162,160);stroke-width:4.68px;stroke-linecap:butt;stroke-linejoin:round;"/>
                                        </g>
                                        <g transform="matrix(1,0,0,1,0.432554,37.2904)">
                                            <path d="M6549.35,265L6645,265" style="fill:none;stroke:rgb(164,162,160);stroke-width:4.68px;stroke-linecap:butt;stroke-linejoin:round;"/>
                                        </g>
                                        <g transform="matrix(1,0,0,1,0.432554,102.549)">
                                            <path d="M6549.35,265L6645,265" style="fill:none;stroke:rgb(164,162,160);stroke-width:4.68px;stroke-linecap:butt;stroke-linejoin:round;"/>
                                        </g>
                                        <g transform="matrix(1,0,0,1,0.432554,46.613)">
                                            <path d="M6549.35,265L6645,265" style="fill:none;stroke:rgb(164,162,160);stroke-width:4.68px;stroke-linecap:butt;stroke-linejoin:round;"/>
                                        </g>
                                        <g transform="matrix(1,0,0,1,0.432554,111.871)">
                                            <path d="M6549.35,265L6645,265" style="fill:none;stroke:rgb(164,162,160);stroke-width:4.68px;stroke-linecap:butt;stroke-linejoin:round;"/>
                                        </g>
                                        <g transform="matrix(1,0,0,1,0.432554,55.9356)">
                                            <path d="M6549.35,265L6645,265" style="fill:none;stroke:rgb(164,162,160);stroke-width:4.68px;stroke-linecap:butt;stroke-linejoin:round;"/>
                                        </g>
                                        <g transform="matrix(1,0,0,1,0.432554,121.194)">
                                            <path d="M6549.35,265L6645,265" style="fill:none;stroke:rgb(164,162,160);stroke-width:4.68px;stroke-linecap:butt;stroke-linejoin:round;"/>
                                        </g>
                                    </g>
                                </g>
                            </g>
                        </g>
                    </g>
                    <g transform="matrix(3.73203,-0.182048,0.177181,3.83455,-5197.76,-2337.18)">
                        <path d="M1496.65,847.371C1497.08,846.53 1497.94,846 1498.88,846C1499.82,846 1500.68,846.53 1501.11,847.371L1505.32,855.695L1514.54,857.129C1515.47,857.274 1516.24,857.931 1516.54,858.827C1516.83,859.723 1516.59,860.707 1515.92,861.371L1509.31,867.95L1510.79,877.161C1510.94,878.091 1510.55,879.027 1509.79,879.581C1509.03,880.135 1508.02,880.213 1507.18,879.783L1498.88,875.524L1490.58,879.783C1489.74,880.213 1488.73,880.135 1487.97,879.581C1487.21,879.027 1486.82,878.091 1486.97,877.161L1488.45,867.95L1481.84,861.371C1481.17,860.707 1480.93,859.723 1481.23,858.827C1481.52,857.931 1482.29,857.274 1483.22,857.129L1492.44,855.695L1496.65,847.371Z" style="fill:none;stroke:rgb(132,134,134);stroke-opacity:0.5;stroke-width:0.88px;"/>
                    </g>
                </g>
            </g>
        </g>
    </g>
</svg>
