<?xml version="1.0" encoding="UTF-8" standalone="no"?>
<!DOCTYPE svg PUBLIC "-//W3C//DTD SVG 1.1//EN" "http://www.w3.org/Graphics/SVG/1.1/DTD/svg11.dtd">
<svg width="100%" height="100%" viewBox="0 0 20 19" version="1.1" xmlns="http://www.w3.org/2000/svg" xmlns:xlink="http://www.w3.org/1999/xlink" xml:space="preserve" xmlns:serif="http://www.serif.com/" style="fill-rule:evenodd;clip-rule:evenodd;stroke-linejoin:round;stroke-miterlimit:2;">
    <g transform="matrix(1,0,0,1,-179.226,-1807.49)">
        <g transform="matrix(1,0,0,1,0,1227.14)">
            <g transform="matrix(0.542898,0,0,0.542898,-624.862,121.055)">
                <path d="M1496.65,847.371C1497.08,846.53 1497.94,846 1498.88,846C1499.82,846 1500.68,846.53 1501.11,847.371L1505.32,855.695L1514.54,857.129C1515.47,857.274 1516.24,857.931 1516.54,858.827C1516.83,859.723 1516.59,860.707 1515.92,861.371L1509.31,867.95L1510.79,877.161C1510.94,878.091 1510.55,879.027 1509.79,879.581C1509.03,880.135 1508.02,880.213 1507.18,879.783L1498.88,875.524L1490.58,879.783C1489.74,880.213 1488.73,880.135 1487.97,879.581C1487.21,879.027 1486.82,878.091 1486.97,877.161L1488.45,867.95L1481.84,861.371C1481.17,860.707 1480.93,859.723 1481.23,858.827C1481.52,857.931 1482.29,857.274 1483.22,857.129L1492.44,855.695L1496.65,847.371Z" style="fill:rgb(229,229,220);"/>
            </g>
        </g>
    </g>
</svg>
